<?xml version="1.0" encoding="utf-8"?>
<!-- Generator: Adobe Illustrator 18.0.0, SVG Export Plug-In . SVG Version: 6.00 Build 0)  -->
<!DOCTYPE svg PUBLIC "-//W3C//DTD SVG 1.1//EN" "http://www.w3.org/Graphics/SVG/1.1/DTD/svg11.dtd">
<svg version="1.1" id="Layer_1" xmlns="http://www.w3.org/2000/svg" xmlns:xlink="http://www.w3.org/1999/xlink" x="0px" y="0px"
	 viewBox="0 0 64 64" enable-background="new 0 0 64 64" xml:space="preserve">
<g>
	<g>
		<g>
			<path fill="#F94646" d="M32,0c17.7,0,32,14.3,32,32S49.7,64,32,64S0,49.7,0,32S14.3,0,32,0z"/>
		</g>
	</g>
	<g>
		<g>
			<path fill="#FFFFFF" d="M19.5,49c-1.7,0-2.7-1.2-3.1-1.9c-0.4-0.7-1.3-2.9,1.4-5.6c1.1-1.1,3.1-3.2,8.3-5
				c0.7-1.4,1.4-2.9,2.1-4.5c0.8-1.8,1.5-3.3,2-4.7c-2.1-3.4-2.5-5.9-2.4-8.8c0.1-3.3,2.3-4.5,3.7-4.5c1,0,3.6,0.9,3.7,5.2
				c0.1,1.7-0.2,3.7-1.7,7.8c1.1,1.5,2.5,3.3,4.3,5.3c0.6,0.7,1.2,1.3,1.7,1.8c5.6-0.2,8.4,1,9.4,1.6c2.3,1.4,2.1,3.7,1.7,4.7
				c-0.3,0.8-1.4,2.2-3.7,2.2c-0.5,0-1.1-0.1-1.7-0.2c-1.8-0.5-3.1-1.2-7-5.3c-1.8,0.1-3.7,0.4-5.7,0.8c-1.6,0.3-3.1,0.7-4.4,1.1
				c-4.3,8.5-6.4,9.4-7.1,9.7C20.6,48.9,20,49,19.5,49z M23.9,40.7c-2.2,1.1-3.3,2.2-4,2.9c-1.2,1.2-1,1.9-1,1.9l0.2,0.3
				c0,0,0.1,0.2,0.3,0.2c0.1,0,0.2,0,0.4-0.1C20.1,45.8,21.3,45.2,23.9,40.7z M42.5,37c2,1.9,2.7,2.2,3.6,2.4
				c0.3,0.1,0.6,0.1,0.9,0.1c0.7,0,0.9-0.3,0.9-0.3c0.1-0.4,0-0.8-0.5-1.1C47.1,37.9,45.7,37.2,42.5,37z M30.2,35.2l-0.1,0.2
				c0.7-0.2,1.3-0.3,2-0.4c1.3-0.2,2.5-0.5,3.7-0.6l-0.1-0.1l0,0c0,0,0,0,0,0c-1.3-1.4-2.4-2.7-3.4-4l-0.1,0.1l0-0.1
				c-0.4,0.9-0.8,1.8-1.2,2.9C30.7,33.9,30.4,34.6,30.2,35.2L30.2,35.2z M31.5,17c-0.4,0.1-0.6,0.7-0.6,1.5c0,1.5,0,3,0.8,4.9
				c0.7-2.2,0.7-3.3,0.7-4.1C32.3,17.8,31.8,17.2,31.5,17z"/>
		</g>
	</g>
</g>
</svg>
