<?xml version="1.0" ?><!DOCTYPE svg  PUBLIC '-//W3C//DTD SVG 1.0//EN'  'http://www.w3.org/TR/2001/REC-SVG-20010904/DTD/svg10.dtd'><svg enable-background="new 0 0 64 64" height="64px" id="Layer_1" version="1.0" viewBox="0 0 64 64" width="64px" xml:space="preserve" xmlns="http://www.w3.org/2000/svg" xmlns:xlink="http://www.w3.org/1999/xlink"><path d="M32,64c17.673,0,32-14.327,32-32H0C0,49.673,14.327,64,32,64z" fill="#568AC2"/><path d="M32,0C14.327,0,0,14.327,0,32h64C64,14.327,49.673,0,32,0z" fill="#679DD3"/><g><path d="M20,32v8.949h9v22.906C29.988,63.947,30.988,64,32,64c2.405,0,4.746-0.274,7-0.777V40.949h11.941V32H20z" fill="#E1E1E1"/><path d="M50.941,31.043H39V27.4c0-1.925,0.507-6.4,5.199-6.4h6.742V11h-6.742C33.756,11,29,19.502,29,27.4v3.643   l-9-0.01V32h30.941V31.043z" fill="#F5F5F5"/></g></svg>